<svg xmlns="http://www.w3.org/2000/svg" data-name="Layer 1" viewBox="0 0 100 125" x="0px" y="0px"><g fill="#fff"><path d="M90.5,36.92c.43-.53.83-1.07,1.21-1.64a13.56,13.56,0,0,0,1.71-3.87,14.5,14.5,0,0,0,.41-2.27,14.07,14.07,0,0,0,0-2.66c-.08.13-.16.28-.24.39l-.24.32c-.16.21-.32.43-.48.63L91.9,29c-.31.4-.61.8-.88,1.2s-.59.8-.86,1.21a25.34,25.34,0,0,0-1.52,2.48,25.37,25.37,0,0,0-1.32,2.6,18.64,18.64,0,0,0-.85,2.16A17.37,17.37,0,0,0,85.74,41a22.07,22.07,0,0,0,3.33-2.56A18,18,0,0,0,90.5,36.92Z"/><path d="M81.14,50.39a35,35,0,0,0,4.64-1.11c.66-.21,1.29-.44,1.9-.68a9.21,9.21,0,0,0,1.69-.85c2.11-1.32,4-3.24,5.63-7.16A54.65,54.65,0,0,0,81.14,50.39Z"/><path d="M82.76,52.53c-1.25.45-2.58.82-3.87,1.32-.65.26-1.28.54-1.92.85s-1.33.55-2,.88a26.74,26.74,0,0,0,8-.24,15.29,15.29,0,0,0,4-1.59c.33-.19.67-.38,1-.61s.63-.49.94-.77a19.06,19.06,0,0,0,1.84-1.86c-1.39.3-2.73.62-4,1S84,52.12,82.76,52.53Z"/><path d="M74.86,58.59l-1.18.21-1.21.2c-.81.14-1.62.33-2.45.56-.41.12-.83.25-1.25.4s-.84.3-1.29.43c-.88.28-1.79.62-2.74,1,.82,0,1.63.13,2.45.23s1.67.23,2.48.25a49.23,49.23,0,0,0,5,.11,13.34,13.34,0,0,0,2.57-.35,20.6,20.6,0,0,0,2.61-.75,11.36,11.36,0,0,0,1.32-.53c.42-.23.85-.48,1.28-.75A19.33,19.33,0,0,0,85,57.74c-1.89.15-3.63.25-5.28.41A47.82,47.82,0,0,0,74.86,58.59Z"/><path d="M65.13,63.68c-.75-.06-1.55,0-2.26-.06a14.08,14.08,0,0,0-2.14.11,11.68,11.68,0,0,0-2.15.48,10.9,10.9,0,0,0-2.09.9c2.58,0,4.82,1.13,7.23,1.89l.91.26c.36,0,.73.09,1.12.11a14.08,14.08,0,0,0,2.42,0,16.51,16.51,0,0,0,2.76-.48A17.63,17.63,0,0,0,74,65.56c-1.41-.47-2.85-.8-4.34-1.14A29.42,29.42,0,0,0,65.13,63.68Z"/><path d="M81.15,34.21A14.68,14.68,0,0,0,79,40.1c0,.5-.08,1-.12,1.5s-.06,1.07-.08,1.68a27.41,27.41,0,0,1-.46,4.25C82.36,43.43,83.29,38.4,81.15,34.21Z"/><path d="M73.93,50.66a18,18,0,0,0,1-1.59,10.81,10.81,0,0,0,1.36-3.27,13.62,13.62,0,0,0,.4-3.34,17.85,17.85,0,0,0-.45-3.3,8.36,8.36,0,0,0-.89,1.39c-.12.24-.23.49-.33.74s-.23.48-.33.72a17.34,17.34,0,0,0-.85,3.15c-.51,2.11-.66,4.62-1.32,6.92A15.17,15.17,0,0,0,73.93,50.66Z"/><path d="M65.29,55.89a6.37,6.37,0,0,0,1-.73c.31-.26.61-.52.9-.79a16.89,16.89,0,0,0,1.55-1.64,10.65,10.65,0,0,0,.64-.86c.18-.31.36-.62.52-.94A16.23,16.23,0,0,0,71.35,47a28.44,28.44,0,0,0,.39-4.24L71.5,43a17.74,17.74,0,0,0-4.43,6.52c-.62,1.22-1.19,2.53-1.83,3.87a25.9,25.9,0,0,1-2.35,3.77A24.37,24.37,0,0,0,65.29,55.89Z"/><path d="M58.45,58.49A19.76,19.76,0,0,0,60.2,57a11,11,0,0,0,1.36-1.66,16.07,16.07,0,0,0,1.89-3.59,15.52,15.52,0,0,0,.77-3.88,18.34,18.34,0,0,0-1.94,1.4,10.82,10.82,0,0,0-1.56,1.43,11.84,11.84,0,0,0-1.2,1.59c-.18.27-.35.55-.5.83s-.43.6-.62.9c-1.55,2.4-2.43,4.85-4,7.09.75-.39,1.46-.8,2.15-1.21S57.83,58.94,58.45,58.49Z"/><path d="M56.74,71.6c-.16-.24-.31-.49-.48-.71A14.84,14.84,0,0,0,55.2,69.6a22.92,22.92,0,0,0-2.37-2.26c-.32-.27-.64-.52-1-.77.55-.37,1.1-.74,1.66-1.09l1.31-.79c.44-.25.9-.49,1.34-.73.89-.51,1.83-.94,2.75-1.39s1.87-.84,2.81-1.26,1.92-.88,2.88-1.32,1.92-.87,2.87-1.34l2.76-1.58,1.38-.79c.46-.25.87-.59,1.31-.88l2.61-1.82a47.52,47.52,0,0,0,8.93-9L83.71,44a45.65,45.65,0,0,1-9,8.49l-2.59,1.7c-.43.27-.84.59-1.3.82l-1.37.73-2.73,1.46c-.94.42-1.9.81-2.84,1.22s-1.88.82-2.86,1.21-2,.76-2.93,1.2-1.93.85-2.87,1.35c-.47.24-.95.47-1.42.72l-1.39.78c-.83.48-1.65,1-2.45,1.53-.8-.54-1.62-1-2.45-1.53l-1.39-.78c-.47-.25-.95-.48-1.42-.72-.94-.5-1.91-.91-2.87-1.35s-2-.8-2.93-1.2-1.9-.81-2.86-1.21-1.9-.8-2.84-1.22l-2.73-1.46L29.14,55c-.46-.23-.87-.55-1.3-.82l-2.59-1.7a45.65,45.65,0,0,1-9-8.49l-.76.57a47.52,47.52,0,0,0,8.93,9l2.61,1.82c.44.29.85.63,1.31.88l1.38.79,2.76,1.58c.95.47,1.92.9,2.87,1.34s1.94.91,2.88,1.32,1.9.8,2.81,1.26,1.86.88,2.75,1.39c.44.24.9.48,1.34.73l1.31.79c.56.35,1.11.72,1.66,1.09-.33.25-.65.5-1,.77A22.92,22.92,0,0,0,44.8,69.6a14.84,14.84,0,0,0-1.06,1.29c-.17.22-.32.47-.48.71L43,72c-.07.13-.12.21-.17.32L45,73.52l.18-.38.16-.28c.12-.19.23-.39.37-.58.26-.38.56-.76.87-1.13a21.56,21.56,0,0,1,2.07-2.1c.44-.38.89-.76,1.35-1.12.46.36.91.74,1.35,1.12a21.56,21.56,0,0,1,2.07,2.1c.31.37.61.75.87,1.13.14.19.25.39.37.58l.16.28.18.38,2.14-1.21c0-.11-.1-.19-.17-.32Z"/><path d="M6.58,31.41a13.56,13.56,0,0,0,1.71,3.87c.38.57.78,1.11,1.21,1.64a18,18,0,0,0,1.43,1.47A22.07,22.07,0,0,0,14.26,41a17.37,17.37,0,0,0-.73-2.28,18.64,18.64,0,0,0-.85-2.16,25.37,25.37,0,0,0-1.32-2.6,25.34,25.34,0,0,0-1.52-2.48c-.27-.41-.55-.81-.86-1.21s-.57-.8-.88-1.2l-.94-1.2c-.16-.2-.32-.42-.48-.63l-.24-.32c-.08-.11-.16-.26-.24-.39a14.07,14.07,0,0,0,0,2.66A14.5,14.5,0,0,0,6.58,31.41Z"/><path d="M12.32,48.6c.61.24,1.24.47,1.9.68a35,35,0,0,0,4.64,1.11A54.65,54.65,0,0,0,5,40.59c1.61,3.92,3.52,5.84,5.63,7.16A9.21,9.21,0,0,0,12.32,48.6Z"/><path d="M25,55.58c-.66-.33-1.34-.6-2-.88s-1.27-.59-1.92-.85c-1.29-.5-2.62-.87-3.87-1.32s-2.63-.71-3.95-1.05-2.64-.67-4-1a19.06,19.06,0,0,0,1.84,1.86c.31.28.62.53.94.77s.67.42,1,.61a15.29,15.29,0,0,0,4,1.59A26.74,26.74,0,0,0,25,55.58Z"/><path d="M30.33,61.9c.81,0,1.66-.17,2.48-.25s1.63-.18,2.45-.23c-.95-.41-1.86-.75-2.74-1-.45-.13-.88-.28-1.29-.43s-.84-.28-1.25-.4c-.83-.23-1.64-.42-2.45-.56l-1.21-.2-1.18-.21a47.82,47.82,0,0,0-4.88-.44c-1.65-.16-3.39-.26-5.28-.41a19.33,19.33,0,0,0,2.53,1.89c.43.27.86.52,1.28.75a11.36,11.36,0,0,0,1.32.53,20.6,20.6,0,0,0,2.61.75,13.34,13.34,0,0,0,2.57.35A49.23,49.23,0,0,0,30.33,61.9Z"/><path d="M41.42,64.21a11.68,11.68,0,0,0-2.15-.48,14.08,14.08,0,0,0-2.14-.11c-.71,0-1.51,0-2.26.06a29.42,29.42,0,0,0-4.54.74c-1.49.34-2.93.67-4.34,1.14a17.63,17.63,0,0,0,3.08,1.3,16.51,16.51,0,0,0,2.76.48,14.08,14.08,0,0,0,2.42,0c.39,0,.76-.06,1.12-.11l.91-.26c2.41-.76,4.65-1.85,7.23-1.89A10.9,10.9,0,0,0,41.42,64.21Z"/><path d="M21.17,43.28c0-.61,0-1.17-.08-1.68s-.1-1-.12-1.5a14.68,14.68,0,0,0-2.12-5.89c-2.14,4.19-1.21,9.22,2.78,13.32A27.41,27.41,0,0,1,21.17,43.28Z"/><path d="M25,49.07a18,18,0,0,0,1,1.59,15.17,15.17,0,0,0,1.37,1.42c-.66-2.3-.81-4.81-1.32-6.92A17.34,17.34,0,0,0,25.27,42c-.1-.24-.22-.48-.33-.72s-.21-.5-.33-.74a8.36,8.36,0,0,0-.89-1.39,17.85,17.85,0,0,0-.45,3.3,13.62,13.62,0,0,0,.4,3.34A10.81,10.81,0,0,0,25,49.07Z"/><path d="M30.07,50.93c.16.32.34.63.52.94a10.65,10.65,0,0,0,.64.86,16.89,16.89,0,0,0,1.55,1.64c.29.27.59.53.9.79a6.37,6.37,0,0,0,1,.73,24.37,24.37,0,0,0,2.4,1.26,25.9,25.9,0,0,1-2.35-3.77c-.64-1.34-1.21-2.65-1.83-3.87A17.74,17.74,0,0,0,28.5,43l-.24-.19A28.44,28.44,0,0,0,28.65,47,16.23,16.23,0,0,0,30.07,50.93Z"/><path d="M38.44,55.3A11,11,0,0,0,39.8,57a19.76,19.76,0,0,0,1.75,1.53c.62.45,1.25.95,1.93,1.37s1.4.82,2.15,1.21c-1.6-2.24-2.48-4.69-4-7.09-.19-.3-.4-.6-.62-.9s-.32-.56-.5-.83a11.84,11.84,0,0,0-1.2-1.59,10.82,10.82,0,0,0-1.56-1.43,18.34,18.34,0,0,0-1.94-1.4,15.52,15.52,0,0,0,.77,3.88A16.07,16.07,0,0,0,38.44,55.3Z"/></g></svg>